<?xml version="1.0" standalone="no"?><!DOCTYPE svg PUBLIC "-//W3C//DTD SVG 1.1//EN" "http://www.w3.org/Graphics/SVG/1.1/DTD/svg11.dtd"><svg t="1657168085219" class="icon" viewBox="0 0 1024 1024" version="1.1" xmlns="http://www.w3.org/2000/svg" p-id="1296" xmlns:xlink="http://www.w3.org/1999/xlink" width="200" height="200"><defs><style type="text/css">@font-face { font-family: feedback-iconfont; src: url("//at.alicdn.com/t/font_1031158_u69w8yhxdu.woff2?t=1630033759944") format("woff2"), url("//at.alicdn.com/t/font_1031158_u69w8yhxdu.woff?t=1630033759944") format("woff"), url("//at.alicdn.com/t/font_1031158_u69w8yhxdu.ttf?t=1630033759944") format("truetype"); }
</style></defs><path d="M102.4 102.4m307.2 0l204.8 0q307.2 0 307.2 307.2l0 204.8q0 307.2-307.2 307.2l-204.8 0q-307.2 0-307.2-307.2l0-204.8q0-307.2 307.2-307.2Z" fill="#FFD430" p-id="1297"></path><path d="M512 225.28c-158.35136 0-286.72 128.36864-286.72 286.72s128.36864 286.72 286.72 286.72 286.72-128.36864 286.72-286.72-128.36864-286.72-286.72-286.72z m0 81.92c113.10592 0 204.8 91.69408 204.8 204.8s-91.69408 204.8-204.8 204.8-204.8-91.69408-204.8-204.8 91.69408-204.8 204.8-204.8z" fill="#FFFFFF" fill-opacity=".6" p-id="1298"></path><path d="M512 225.28c158.35136 0 286.72 128.36864 286.72 286.72s-128.36864 286.72-286.72 286.72a40.96 40.96 0 0 1-1.28-81.89952L512 716.8c113.10592 0 204.8-91.69408 204.8-204.8s-91.69408-204.8-204.8-204.8-204.8 91.69408-204.8 204.8a40.96 40.96 0 1 1-81.92 0c0-158.35136 128.36864-286.72 286.72-286.72z" fill="#FFFFFF" p-id="1299"></path></svg>