<?xml version="1.0" standalone="no"?><!DOCTYPE svg PUBLIC "-//W3C//DTD SVG 1.1//EN" "http://www.w3.org/Graphics/SVG/1.1/DTD/svg11.dtd"><svg t="1657168022811" class="icon" viewBox="0 0 1024 1024" version="1.1" xmlns="http://www.w3.org/2000/svg" p-id="2370" xmlns:xlink="http://www.w3.org/1999/xlink" width="200" height="200"><defs><style type="text/css">@font-face { font-family: feedback-iconfont; src: url("//at.alicdn.com/t/font_1031158_u69w8yhxdu.woff2?t=1630033759944") format("woff2"), url("//at.alicdn.com/t/font_1031158_u69w8yhxdu.woff?t=1630033759944") format("woff"), url("//at.alicdn.com/t/font_1031158_u69w8yhxdu.ttf?t=1630033759944") format("truetype"); }
</style></defs><path d="M102.4 102.4m307.2 0l204.8 0q307.2 0 307.2 307.2l0 204.8q0 307.2-307.2 307.2l-204.8 0q-307.2 0-307.2-307.2l0-204.8q0-307.2 307.2-307.2Z" fill="#6464FF" p-id="2371"></path><path d="M624.64 291.84c79.17568 0 143.36 64.18432 143.36 143.36 0 1.67936-0.03072 3.3536-0.08704 5.0176A3.16416 3.16416 0 0 1 768 440.32c1.03424 101.65248-56.74496 206.62272-256 307.2-203.32544-101.00736-256-204.8-256-307.2l0.08704-0.1024A145.95584 145.95584 0 0 1 256 435.2c0-79.17568 64.18432-143.36 143.36-143.36 45.69088 0 86.38976 21.376 112.64 54.67136C538.25024 313.216 578.94912 291.84 624.64 291.84z" fill="#FFFFFF" fill-opacity=".8" p-id="2372"></path></svg>