<?xml version="1.0" standalone="no"?><!DOCTYPE svg PUBLIC "-//W3C//DTD SVG 1.1//EN" "http://www.w3.org/Graphics/SVG/1.1/DTD/svg11.dtd"><svg t="1657167960554" class="icon" viewBox="0 0 1024 1024" version="1.1" xmlns="http://www.w3.org/2000/svg" p-id="2217" xmlns:xlink="http://www.w3.org/1999/xlink" width="200" height="200"><defs><style type="text/css">@font-face { font-family: feedback-iconfont; src: url("//at.alicdn.com/t/font_1031158_u69w8yhxdu.woff2?t=1630033759944") format("woff2"), url("//at.alicdn.com/t/font_1031158_u69w8yhxdu.woff?t=1630033759944") format("woff"), url("//at.alicdn.com/t/font_1031158_u69w8yhxdu.ttf?t=1630033759944") format("truetype"); }
</style></defs><path d="M102.4 102.4m307.2 0l204.8 0q307.2 0 307.2 307.2l0 204.8q0 307.2-307.2 307.2l-204.8 0q-307.2 0-307.2-307.2l0-204.8q0-307.2 307.2-307.2Z" fill="#FFB3B3" p-id="2218"></path><path d="M512 256c141.38368 0 256 114.61632 256 256s-114.61632 256-256 256-256-114.61632-256-256 114.61632-256 256-256z m5.12 194.56h-10.24a46.08 46.08 0 0 0-46.08 46.08v163.84a46.08 46.08 0 0 0 46.08 46.08h10.24a46.08 46.08 0 0 0 46.08-46.08V496.64a46.08 46.08 0 0 0-46.08-46.08z m0-133.12h-10.24a46.08 46.08 0 0 0-46.08 46.08v10.24a46.08 46.08 0 0 0 46.08 46.08h10.24a46.08 46.08 0 0 0 46.08-46.08v-10.24a46.08 46.08 0 0 0-46.08-46.08z" fill="#FFFFFF" fill-opacity=".8" p-id="2219"></path></svg>