<?xml version="1.0" standalone="no"?><!DOCTYPE svg PUBLIC "-//W3C//DTD SVG 1.1//EN" "http://www.w3.org/Graphics/SVG/1.1/DTD/svg11.dtd"><svg t="1657168031191" class="icon" viewBox="0 0 1024 1024" version="1.1" xmlns="http://www.w3.org/2000/svg" p-id="2672" xmlns:xlink="http://www.w3.org/1999/xlink" width="200" height="200"><defs><style type="text/css">@font-face { font-family: feedback-iconfont; src: url("//at.alicdn.com/t/font_1031158_u69w8yhxdu.woff2?t=1630033759944") format("woff2"), url("//at.alicdn.com/t/font_1031158_u69w8yhxdu.woff?t=1630033759944") format("woff"), url("//at.alicdn.com/t/font_1031158_u69w8yhxdu.ttf?t=1630033759944") format("truetype"); }
</style></defs><path d="M102.4 81.92m307.2 0l204.8 0q307.2 0 307.2 307.2l0 204.8q0 307.2-307.2 307.2l-204.8 0q-307.2 0-307.2-307.2l0-204.8q0-307.2 307.2-307.2Z" fill="#FF99DD" p-id="2673"></path><path d="M675.84 286.72c19.56864 0 37.71392 6.09792 52.63872 16.50176L662.9376 389.12 768 431.52896v2.51904L662.9376 491.52 768 547.89632v2.69824l-55.47008 26.8288a19.712 19.712 0 0 0-2.78528-5.35552l-0.68096-0.8704-81.96096-99.90656-0.7168-0.82944c-7.38304-8.07424-20.06528-8.92928-28.51328-1.92512l-0.85504 0.74752-51.52256 47.70816-108.8768-88.5248-0.86016-0.6656c-9.02656-6.58432-21.8624-4.7872-28.6208 4.00896l-0.65536 0.90112-95.82592 139.86304-0.57856 0.90112c-5.3504 8.76544-3.0464 20.096 5.33504 26.20416l0.89088 0.6144 0.9216 0.5632c8.9856 5.2224 20.59776 2.9696 26.8544-5.20704l0.62976-0.8704L427.8784 473.38496l105.40032 85.68832 0.8704 0.6656a20.88448 20.88448 0 0 0 25.48224-0.77312l0.85504-0.74752 48.5632-44.9792 67.0976 81.78688-13.2096 6.39488 63.29856 79.91808A91.72992 91.72992 0 0 1 675.84 696.32H348.16c-50.89792 0-92.16-41.26208-92.16-92.16V378.88c0-50.89792 41.26208-92.16 92.16-92.16h327.68zM540.16 378.88c-15.54944 0-28.16 12.29824-28.16 27.47392 0 15.17056 12.61056 27.47392 28.16 27.47392 15.55456 0 28.16-12.30336 28.16-27.47392C568.32 391.17824 555.71456 378.88 540.16 378.88z" fill="#FFFFFF" fill-opacity=".8" p-id="2674"></path></svg>