<?xml version="1.0" standalone="no"?><!DOCTYPE svg PUBLIC "-//W3C//DTD SVG 1.1//EN" "http://www.w3.org/Graphics/SVG/1.1/DTD/svg11.dtd"><svg t="1657168088721" class="icon" viewBox="0 0 1024 1024" version="1.1" xmlns="http://www.w3.org/2000/svg" p-id="1450" xmlns:xlink="http://www.w3.org/1999/xlink" width="200" height="200"><defs><style type="text/css">@font-face { font-family: feedback-iconfont; src: url("//at.alicdn.com/t/font_1031158_u69w8yhxdu.woff2?t=1630033759944") format("woff2"), url("//at.alicdn.com/t/font_1031158_u69w8yhxdu.woff?t=1630033759944") format("woff"), url("//at.alicdn.com/t/font_1031158_u69w8yhxdu.ttf?t=1630033759944") format("truetype"); }
</style></defs><path d="M102.4 102.4m307.2 0l204.8 0q307.2 0 307.2 307.2l0 204.8q0 307.2-307.2 307.2l-204.8 0q-307.2 0-307.2-307.2l0-204.8q0-307.2 307.2-307.2Z" fill="#FFD430" p-id="1451"></path><path d="M588.8 384a40.96 40.96 0 0 1-40.96 40.96H322.56a40.96 40.96 0 0 1-40.96-40.96V332.8a40.96 40.96 0 0 1 40.96-40.96h225.28a40.96 40.96 0 0 1 40.96 40.96v51.2z m51.2 307.2a40.96 40.96 0 0 1-40.96 40.96H322.56a40.96 40.96 0 0 1-40.96-40.96v-51.2a40.96 40.96 0 0 1 40.96-40.96h276.48a40.96 40.96 0 0 1 40.96 40.96v51.2z m102.4-153.6a40.96 40.96 0 0 1-40.96 40.96H322.56a40.96 40.96 0 0 1-40.96-40.96V486.4a40.96 40.96 0 0 1 40.96-40.96h378.88a40.96 40.96 0 0 1 40.96 40.96v51.2z" fill="#FFFFFF" fill-opacity=".8" p-id="1452"></path></svg>