<?xml version="1.0" standalone="no"?><!DOCTYPE svg PUBLIC "-//W3C//DTD SVG 1.1//EN" "http://www.w3.org/Graphics/SVG/1.1/DTD/svg11.dtd"><svg t="1657168038315" class="icon" viewBox="0 0 1024 1024" version="1.1" xmlns="http://www.w3.org/2000/svg" p-id="2978" xmlns:xlink="http://www.w3.org/1999/xlink" width="200" height="200"><defs><style type="text/css">@font-face { font-family: feedback-iconfont; src: url("//at.alicdn.com/t/font_1031158_u69w8yhxdu.woff2?t=1630033759944") format("woff2"), url("//at.alicdn.com/t/font_1031158_u69w8yhxdu.woff?t=1630033759944") format("woff"), url("//at.alicdn.com/t/font_1031158_u69w8yhxdu.ttf?t=1630033759944") format("truetype"); }
</style></defs><path d="M102.4 102.4m307.2 0l204.8 0q307.2 0 307.2 307.2l0 204.8q0 307.2-307.2 307.2l-204.8 0q-307.2 0-307.2-307.2l0-204.8q0-307.2 307.2-307.2Z" fill="#64CBFF" p-id="2979"></path><path d="M591.36 307.2c77.76256 0 140.8 63.03744 140.8 140.8v25.6c0 77.76256-63.03744 140.8-140.8 140.8H472.33536L368.64 716.8v-102.4h-12.8C278.07744 614.4 215.04 551.36256 215.04 473.6v-25.6C215.04 370.23744 278.07744 307.2 355.84 307.2h235.52zM373.76 430.08a30.72 30.72 0 1 0 0 61.44 30.72 30.72 0 0 0 0-61.44z m102.4 0a30.72 30.72 0 1 0 0 61.44 30.72 30.72 0 0 0 0-61.44z m102.4 0a30.72 30.72 0 1 0 0 61.44 30.72 30.72 0 0 0 0-61.44z" fill="#FFFFFF" fill-opacity=".8" p-id="2980"></path><path d="M519.68 394.24C453.22752 394.24 399.36 448.10752 399.36 514.56S453.22752 634.88 519.68 634.88h81.83808L686.08 716.8v-81.92h2.56c66.45248 0 120.32-53.86752 120.32-120.32S755.09248 394.24 688.64 394.24h-168.96z m163.56352 96.256c13.43488 0 24.33024 10.77248 24.33024 24.064s-10.89536 24.064-24.33024 24.064c-13.44 0-24.33536-10.77248-24.33536-24.064s10.89536-24.064 24.33536-24.064z m-81.11104 0c13.44 0 24.33024 10.77248 24.33024 24.064s-10.89024 24.064-24.33024 24.064-24.33536-10.77248-24.33536-24.064 10.89536-24.064 24.33536-24.064z m-81.11104 0c13.44 0 24.33536 10.77248 24.33536 24.064s-10.89536 24.064-24.33536 24.064c-13.43488 0-24.33024-10.77248-24.33024-24.064s10.89536-24.064 24.33024-24.064z" fill="#FFFFFF" p-id="2981"></path></svg>