<?xml version="1.0" standalone="no"?><!DOCTYPE svg PUBLIC "-//W3C//DTD SVG 1.1//EN" "http://www.w3.org/Graphics/SVG/1.1/DTD/svg11.dtd"><svg t="1657168095397" class="icon" viewBox="0 0 1024 1024" version="1.1" xmlns="http://www.w3.org/2000/svg" p-id="1754" xmlns:xlink="http://www.w3.org/1999/xlink" width="200" height="200"><defs><style type="text/css">@font-face { font-family: feedback-iconfont; src: url("//at.alicdn.com/t/font_1031158_u69w8yhxdu.woff2?t=1630033759944") format("woff2"), url("//at.alicdn.com/t/font_1031158_u69w8yhxdu.woff?t=1630033759944") format("woff"), url("//at.alicdn.com/t/font_1031158_u69w8yhxdu.ttf?t=1630033759944") format("truetype"); }
</style></defs><path d="M102.4 102.4m307.2 0l204.8 0q307.2 0 307.2 307.2l0 204.8q0 307.2-307.2 307.2l-204.8 0q-307.2 0-307.2-307.2l0-204.8q0-307.2 307.2-307.2Z" fill="#50CCCC" p-id="1755"></path><path d="M768 424.96v199.68c0 79.17568-64.18432 143.36-143.36 143.36H399.36c-79.17568 0-143.36-64.18432-143.36-143.36V424.96h512zM563.85024 496.92672c-18.67776 0-33.66912 4.9152-44.48256 14.7456-9.8304 8.84736-14.7456 19.90656-14.7456 32.93184 0 9.09312 1.96608 16.71168 5.89824 22.85568 4.42368 6.63552 11.0592 11.55072 19.90656 14.99136v0.73728l-1.50528 0.37888c-7.936 2.176-14.57152 6.9632-20.1216 14.36672-6.88128 8.35584-10.32192 17.94048-10.32192 28.99968 0 15.48288 5.65248 28.01664 16.95744 37.84704 11.30496 9.58464 27.52512 14.49984 48.41472 14.49984 20.64384 0 36.864-4.9152 48.41472-14.49984 11.30496-9.8304 16.95744-22.36416 16.95744-37.84704 0-11.0592-3.44064-20.64384-10.32192-28.99968-5.89824-7.86432-13.27104-12.77952-21.62688-14.7456v-0.73728l1.7408-0.70656c7.98208-3.39456 14.03392-8.0896 18.16576-14.2848 3.93216-6.144 5.89824-13.76256 5.89824-22.85568 0-13.02528-4.9152-24.08448-14.7456-32.93184-11.0592-9.8304-25.8048-14.7456-44.48256-14.7456z m-123.1616 3.44064h-20.15232l-1.64352 1.72544c-5.6064 5.68832-12.43136 10.80832-20.47488 15.72352-8.84736 4.9152-16.95744 8.35584-24.82176 10.32192v26.54208l2.53952-0.75776c15.09376-4.69504 27.7504-11.81696 37.76512-21.36064V675.84h26.78784V500.36736z m123.1616 93.88032c12.77952 0 22.36416 3.19488 29.24544 9.58464 6.38976 5.65248 9.58464 13.27104 9.58464 23.10144 0 9.09312-3.19488 16.46592-9.58464 22.1184-7.12704 5.65248-16.95744 8.6016-29.24544 8.6016-12.53376 0-22.1184-2.94912-28.75392-8.6016-6.88128-5.65248-10.07616-13.02528-10.07616-22.1184 0-9.8304 3.19488-17.44896 9.8304-23.3472 6.38976-6.38976 16.22016-9.33888 28.99968-9.33888z m0-75.93984c10.81344 0 19.41504 2.70336 25.8048 8.6016 5.40672 4.9152 8.35584 11.30496 8.35584 18.67776 0 8.35584-2.4576 14.99136-6.88128 19.90656-5.89824 5.89824-14.99136 8.84736-27.27936 8.84736-12.53376 0-21.62688-2.94912-27.27936-8.84736-4.66944-4.9152-6.88128-11.55072-6.88128-19.90656 0-7.3728 2.70336-13.76256 8.35584-18.67776 6.38976-5.89824 14.99136-8.6016 25.8048-8.6016zM624.64 256c79.17568 0 143.36 64.18432 143.36 143.36v15.36H256v-15.36c0-79.17568 64.18432-143.36 143.36-143.36h225.28zM571.28448 311.6544H516.352v45.25056l-0.06144 2.19136c-0.48128 11.55072-3.41504 21.1456-8.87808 28.7744l6.72768 6.17472 1.05984-1.48992c5.1712-7.57248 8.32-16.84992 9.4464-27.90912h37.7856v16.128l-0.0256 0.62464c-0.16896 1.9968-1.16736 3.06176-2.92352 3.06176-3.50208 0-7.28064-0.18432-11.33568-0.36864l2.39616 8.57088h11.79648l0.90624-0.0256c5.2992-0.29184 8.03328-3.23584 8.03328-8.82176V311.6544z m-112.91136 5.25312c-6.4512 0-11.70432 1.75104-15.75936 5.43744-4.33152 3.6864-6.72768 8.7552-7.28064 15.29856h9.86112l0.14336-1.18784c0.512-3.46624 1.82784-6.11328 3.81952-7.936 2.21184-2.02752 5.34528-3.04128 9.30816-3.04128 3.87072 0 6.912 0.82944 8.93952 2.67264 1.8432 1.75104 2.85696 4.23936 2.85696 7.55712s-1.10592 5.89824-3.13344 7.64928c-2.02752 1.75104-5.0688 2.67264-9.12384 2.67264h-4.70016v7.55712h4.79232l1.26976 0.0256c3.712 0.16896 6.6048 1.08032 8.59136 2.7392 2.39616 1.8432 3.59424 4.70016 3.59424 8.57088 0 3.31776-1.19808 5.9904-3.40992 8.20224-2.58048 2.39616-5.9904 3.6864-10.22976 3.6864-3.87072 0-7.00416-1.10592-9.40032-3.31776-2.7648-2.39616-4.1472-5.80608-4.33152-10.22976h-10.1376l0.13824 1.44896c0.768 6.66624 3.3024 11.8016 7.6032 15.41632 4.05504 3.40992 9.49248 5.16096 16.22016 5.16096 7.00416 0 12.81024-2.02752 17.23392-5.89824 4.1472-3.87072 6.26688-8.84736 6.26688-14.92992 0-3.87072-1.10592-7.09632-3.31776-9.58464-2.02752-2.39616-4.97664-4.23936-8.84736-5.43744 7.18848-2.39616 10.87488-7.28064 10.87488-14.46912 0-5.62176-2.02752-10.04544-5.89824-13.27104-4.05504-3.2256-9.30816-4.79232-15.94368-4.79232z m104.064 25.15968v14.46912h-37.3248V342.0672h37.3248z m0-22.02624v13.824h-37.3248v-13.824h37.3248z" fill="#FFFFFF" fill-opacity=".8" p-id="1756"></path></svg>