<?xml version="1.0" standalone="no"?><!DOCTYPE svg PUBLIC "-//W3C//DTD SVG 1.1//EN" "http://www.w3.org/Graphics/SVG/1.1/DTD/svg11.dtd"><svg t="1657168106312" class="icon" viewBox="0 0 1024 1024" version="1.1" xmlns="http://www.w3.org/2000/svg" p-id="2058" xmlns:xlink="http://www.w3.org/1999/xlink" width="200" height="200"><defs><style type="text/css">@font-face { font-family: feedback-iconfont; src: url("//at.alicdn.com/t/font_1031158_u69w8yhxdu.woff2?t=1630033759944") format("woff2"), url("//at.alicdn.com/t/font_1031158_u69w8yhxdu.woff?t=1630033759944") format("woff"), url("//at.alicdn.com/t/font_1031158_u69w8yhxdu.ttf?t=1630033759944") format("truetype"); }
</style></defs><path d="M102.4 102.4m307.2 0l204.8 0q307.2 0 307.2 307.2l0 204.8q0 307.2-307.2 307.2l-204.8 0q-307.2 0-307.2-307.2l0-204.8q0-307.2 307.2-307.2Z" fill="#6464FF" p-id="2059"></path><path d="M730.39872 292.11648a20.48 20.48 0 0 1 16.97792 22.55872l-0.14336 1.01376-31.3856 188.3392c0.62464 6.53824 0.9472 13.16352 0.9472 19.8656 0 49.7152-17.7152 95.29344-47.17568 130.7648l0.0512-0.19456 0.06144-0.4352a2.56 2.56 0 0 0-1.39264-2.42176l-0.4096-0.16384-89.05728-27.63264-0.45568-0.09728a2.56 2.56 0 0 0-2.74944 1.78176l-0.0256 0.09216-0.0256 0.09216-1.1264 4.8896-0.06656 0.4352a2.56 2.56 0 0 0 1.39264 2.42176l0.4096 0.16384 88.00256 27.30496c-37.48352 41.6256-91.8016 67.79904-152.23296 67.79904-60.42624 0-114.74432-26.16832-152.23296-67.79904l88.0128-27.30496 0.40448-0.16384a2.56 2.56 0 0 0 1.3824-1.9968l0.01024-0.42496-0.06656-0.4352-1.1264-4.8896-0.0256-0.09216-0.0256-0.09216a2.56 2.56 0 0 0-2.304-1.792l-0.45056 0.01024-0.45056 0.09728-89.0624 27.63264-0.4096 0.16384a2.56 2.56 0 0 0-1.37728 1.9968l-0.01024 0.42496 0.06144 0.4352 0.0512 0.19968a203.96544 203.96544 0 0 1-47.1808-130.7648c0-6.71232 0.32256-13.34784 0.95744-19.8912l-31.39072-188.31872a20.48 20.48 0 0 1 26.0864-22.9888l134.6048 40.38656A204.28288 204.28288 0 0 1 512 319.09888c26.29632 0 51.43552 4.95616 74.53696 13.98784l134.6048-40.38144a20.48 20.48 0 0 1 9.25696-0.5888zM558.07488 577.9456a5.12 5.12 0 0 0-5.12 5.12c0 8.5248-5.23776 17.96096-13.824 24.6528-0.59392 0.4608-1.69472 0.11264-5.4272-2.49344l-0.78336-0.55296-2.4576-1.792-1.21856-0.89088c-5.95456-4.29056-9.74848-6.12352-14.68928-6.12352-4.58752 0-8.33024 1.3824-13.7216 4.53632l-1.26976 0.75776-3.95264 2.42688-0.87552 0.52224c-4.48 2.63168-5.7344 2.84672-6.70208 1.9968-7.45984-6.58432-11.8784-15.21664-11.8784-23.04a5.12 5.12 0 1 0-10.24 0c0 10.96192 5.80096 22.2976 15.34464 30.72 5.98016 5.26336 10.01472 4.39296 20.04992-1.67424l1.13664-0.69632 1.19296-0.7424 1.09568-0.67072c4.59776-2.79552 7.28064-3.8912 9.82016-3.8912 1.81248 0 3.85024 0.8704 7.0656 3.0464l0.91136 0.62464 3.97824 2.8928 1.03936 0.7424c8.448 5.95968 12.12928 6.8608 17.87392 2.37568C556.3648 607.26784 563.2 594.96448 563.2 583.0656a5.12 5.12 0 0 0-5.12-5.12z m110.08 17.63328h-92.16a2.56 2.56 0 0 0-2.51904 2.0992l-0.04096 0.4608v5.12a2.56 2.56 0 0 0 2.0992 2.51392l0.4608 0.04608h92.16a2.56 2.56 0 0 0 2.51904-2.0992l0.04096-0.4608v-5.12a2.56 2.56 0 0 0-2.56-2.56z m-220.16 0h-92.16l-0.4608 0.04096a2.56 2.56 0 0 0-2.05824 2.05824l-0.04096 0.4608v5.12l0.04096 0.4608a2.56 2.56 0 0 0 2.05824 2.05312l0.4608 0.04608h92.16l0.4608-0.04608a2.56 2.56 0 0 0 2.05824-2.05824l0.04096-0.4608v-5.12l-0.04096-0.4608a2.56 2.56 0 0 0-2.51904-2.0992z m218.02496-56.17664l-0.45056 0.09728-89.0624 27.63264a2.56 2.56 0 0 0-1.79712 2.5856l0.06144 0.4352 1.1264 4.8896 0.0512 0.1792a2.56 2.56 0 0 0 2.75456 1.78688l0.45056-0.1024 89.0624-27.62752a2.56 2.56 0 0 0 1.79712-2.59072l-0.06144-0.4352-1.1264-4.88448a2.56 2.56 0 0 0-2.80576-1.96608zM355.2256 541.184l-0.0256 0.09216-0.02048 0.09216-1.13152 4.88448-0.06656 0.4352a2.56 2.56 0 0 0 1.39264 2.42176l0.4096 0.16896 89.0624 27.63264 0.45056 0.09728a2.56 2.56 0 0 0 2.57536-1.3568l0.17408-0.43008 0.0512-0.1792 1.1264-4.8896 0.06656-0.4352a2.56 2.56 0 0 0-1.39264-2.42176l-0.4096-0.16384-89.05728-27.63264-0.45056-0.1024a2.56 2.56 0 0 0-2.75456 1.792zM435.2 472.69888a25.6 25.6 0 1 0 0 51.2 25.6 25.6 0 0 0 0-51.2z m153.6 0a25.6 25.6 0 1 0 0 51.2 25.6 25.6 0 0 0 0-51.2z" fill="#FFFFFF" fill-opacity=".8" p-id="2060"></path></svg>