<?xml version="1.0" standalone="no"?><!DOCTYPE svg PUBLIC "-//W3C//DTD SVG 1.1//EN" "http://www.w3.org/Graphics/SVG/1.1/DTD/svg11.dtd"><svg t="1657167892657" class="icon" viewBox="0 0 1024 1024" version="1.1" xmlns="http://www.w3.org/2000/svg" p-id="2064" xmlns:xlink="http://www.w3.org/1999/xlink" width="200" height="200"><defs><style type="text/css">@font-face { font-family: feedback-iconfont; src: url("//at.alicdn.com/t/font_1031158_u69w8yhxdu.woff2?t=1630033759944") format("woff2"), url("//at.alicdn.com/t/font_1031158_u69w8yhxdu.woff?t=1630033759944") format("woff"), url("//at.alicdn.com/t/font_1031158_u69w8yhxdu.ttf?t=1630033759944") format("truetype"); }
</style></defs><path d="M102.4 102.4m307.2 0l204.8 0q307.2 0 307.2 307.2l0 204.8q0 307.2-307.2 307.2l-204.8 0q-307.2 0-307.2-307.2l0-204.8q0-307.2 307.2-307.2Z" fill="#50CCCC" p-id="2065"></path><path d="M513.70496 307.2C589.11232 307.2 650.24 368.3328 650.24 443.73504c75.40736 0 136.53504 61.12768 136.53504 136.52992 0 75.40736-61.1328 136.53504-136.53504 136.53504H377.17504C301.76768 716.8 240.64 655.6672 240.64 580.26496c0-75.40224 61.1328-136.52992 136.53504-136.52992l0.01536-2.25792C378.39872 367.104 439.05536 307.2 513.70496 307.2z" fill="#FFFFFF" fill-opacity=".8" p-id="2066"></path></svg>