<?xml version="1.0" standalone="no"?><!DOCTYPE svg PUBLIC "-//W3C//DTD SVG 1.1//EN" "http://www.w3.org/Graphics/SVG/1.1/DTD/svg11.dtd"><svg t="1657167888074" class="icon" viewBox="0 0 1024 1024" version="1.1" xmlns="http://www.w3.org/2000/svg" p-id="1911" xmlns:xlink="http://www.w3.org/1999/xlink" width="200" height="200"><defs><style type="text/css">@font-face { font-family: feedback-iconfont; src: url("//at.alicdn.com/t/font_1031158_u69w8yhxdu.woff2?t=1630033759944") format("woff2"), url("//at.alicdn.com/t/font_1031158_u69w8yhxdu.woff?t=1630033759944") format("woff"), url("//at.alicdn.com/t/font_1031158_u69w8yhxdu.ttf?t=1630033759944") format("truetype"); }
</style></defs><path d="M102.4 102.4m307.2 0l204.8 0q307.2 0 307.2 307.2l0 204.8q0 307.2-307.2 307.2l-204.8 0q-307.2 0-307.2-307.2l0-204.8q0-307.2 307.2-307.2Z" fill="#64CBFF" p-id="1912"></path><path d="M613.95456 277.10464C704.60416 316.50816 768 406.85056 768 512c0 141.38368-114.61632 256-256 256s-256-114.61632-256-256c0-105.14944 63.39584-195.49184 154.04544-234.89536-0.19456 2.11456-0.32768 4.24448-0.39424 6.38464L409.6 286.72v174.08c0 56.55552 45.84448 102.4 102.4 102.4 55.9616 0 101.44256-44.89728 102.38464-100.63872L614.4 460.8V286.72c0-2.944-0.12288-5.8624-0.36864-8.74496l-0.0768-0.8704zM512 230.4c42.41408 0 76.8 34.38592 76.8 76.8v153.6c0 42.41408-34.38592 76.8-76.8 76.8-42.41408 0-76.8-34.38592-76.8-76.8V307.2c0-42.41408 34.38592-76.8 76.8-76.8z" fill="#FFFFFF" fill-opacity=".8" p-id="1913"></path></svg>