<?xml version="1.0" standalone="no"?><!DOCTYPE svg PUBLIC "-//W3C//DTD SVG 1.1//EN" "http://www.w3.org/Graphics/SVG/1.1/DTD/svg11.dtd"><svg t="1657168110131" class="icon" viewBox="0 0 1024 1024" version="1.1" xmlns="http://www.w3.org/2000/svg" p-id="2209" xmlns:xlink="http://www.w3.org/1999/xlink" width="200" height="200"><defs><style type="text/css">@font-face { font-family: feedback-iconfont; src: url("//at.alicdn.com/t/font_1031158_u69w8yhxdu.woff2?t=1630033759944") format("woff2"), url("//at.alicdn.com/t/font_1031158_u69w8yhxdu.woff?t=1630033759944") format("woff"), url("//at.alicdn.com/t/font_1031158_u69w8yhxdu.ttf?t=1630033759944") format("truetype"); }
</style></defs><path d="M102.4 102.4m307.2 0l204.8 0q307.2 0 307.2 307.2l0 204.8q0 307.2-307.2 307.2l-204.8 0q-307.2 0-307.2-307.2l0-204.8q0-307.2 307.2-307.2Z" fill="#D580FF" p-id="2210"></path><path d="M713.63072 354.24768A254.8992 254.8992 0 0 1 768 512c0 141.38368-114.61632 256-256 256a254.8992 254.8992 0 0 1-157.75232-54.36928zM512 256c63.4368 0 121.47712 23.07072 166.1952 61.28128L317.2864 678.1952C279.07072 633.47712 256 575.43168 256 512c0-141.38368 114.61632-256 256-256z" fill="#FFFFFF" fill-opacity=".8" p-id="2211"></path></svg>