<?xml version="1.0" standalone="no"?><!DOCTYPE svg PUBLIC "-//W3C//DTD SVG 1.1//EN" "http://www.w3.org/Graphics/SVG/1.1/DTD/svg11.dtd"><svg t="1657168126183" class="icon" viewBox="0 0 1024 1024" version="1.1" xmlns="http://www.w3.org/2000/svg" p-id="2819" xmlns:xlink="http://www.w3.org/1999/xlink" width="200" height="200"><defs><style type="text/css">@font-face { font-family: feedback-iconfont; src: url("//at.alicdn.com/t/font_1031158_u69w8yhxdu.woff2?t=1630033759944") format("woff2"), url("//at.alicdn.com/t/font_1031158_u69w8yhxdu.woff?t=1630033759944") format("woff"), url("//at.alicdn.com/t/font_1031158_u69w8yhxdu.ttf?t=1630033759944") format("truetype"); }
</style></defs><path d="M102.4 102.4m307.2 0l204.8 0q307.2 0 307.2 307.2l0 204.8q0 307.2-307.2 307.2l-204.8 0q-307.2 0-307.2-307.2l0-204.8q0-307.2 307.2-307.2Z" fill="#FFD430" p-id="2820"></path><path d="M384 435.2a40.96 40.96 0 0 1 40.96 40.96v225.28a40.96 40.96 0 0 1-40.96 40.96H332.8a40.96 40.96 0 0 1-40.96-40.96V476.16a40.96 40.96 0 0 1 40.96-40.96h51.2z m307.2-51.2a40.96 40.96 0 0 1 40.96 40.96v276.48a40.96 40.96 0 0 1-40.96 40.96h-51.2a40.96 40.96 0 0 1-40.96-40.96V424.96a40.96 40.96 0 0 1 40.96-40.96h51.2zM537.6 281.6a40.96 40.96 0 0 1 40.96 40.96v378.88a40.96 40.96 0 0 1-40.96 40.96H486.4a40.96 40.96 0 0 1-40.96-40.96V322.56a40.96 40.96 0 0 1 40.96-40.96h51.2z" fill="#FFFFFF" fill-opacity=".8" p-id="2821"></path></svg>