<?xml version="1.0" standalone="no"?><!DOCTYPE svg PUBLIC "-//W3C//DTD SVG 1.1//EN" "http://www.w3.org/Graphics/SVG/1.1/DTD/svg11.dtd"><svg t="1657168122429" class="icon" viewBox="0 0 1024 1024" version="1.1" xmlns="http://www.w3.org/2000/svg" p-id="2666" xmlns:xlink="http://www.w3.org/1999/xlink" width="200" height="200"><defs><style type="text/css">@font-face { font-family: feedback-iconfont; src: url("//at.alicdn.com/t/font_1031158_u69w8yhxdu.woff2?t=1630033759944") format("woff2"), url("//at.alicdn.com/t/font_1031158_u69w8yhxdu.woff?t=1630033759944") format("woff"), url("//at.alicdn.com/t/font_1031158_u69w8yhxdu.ttf?t=1630033759944") format("truetype"); }
</style></defs><path d="M102.4 102.4m307.2 0l204.8 0q307.2 0 307.2 307.2l0 204.8q0 307.2-307.2 307.2l-204.8 0q-307.2 0-307.2-307.2l0-204.8q0-307.2 307.2-307.2Z" fill="#50CC79" p-id="2667"></path><path d="M587.1104 723.9424l106.5984-12.09344C554.82368 620.98944 458.69056 521.0112 405.51424 411.81184a10.24 10.24 0 1 1 18.41152-8.96512c52.05504 106.89536 147.36384 205.34272 286.14144 295.21408l14.04928-106.39872a215.04 215.04 0 0 0-58.50624-177.52576l-26.368-27.31008A296.1152 296.1152 0 0 0 399.616 297.61024L317.2352 305.0496 304.896 391.66464a289.87904 289.87904 0 0 0 78.45376 242.27328l24.83712 25.71776a215.04 215.04 0 0 0 178.92864 64.28672z" fill="#FFFFFF" fill-opacity=".8" p-id="2668"></path></svg>