<?xml version="1.0" standalone="no"?><!DOCTYPE svg PUBLIC "-//W3C//DTD SVG 1.1//EN" "http://www.w3.org/Graphics/SVG/1.1/DTD/svg11.dtd"><svg t="1657168116463" class="icon" viewBox="0 0 1024 1024" version="1.1" xmlns="http://www.w3.org/2000/svg" p-id="2515" xmlns:xlink="http://www.w3.org/1999/xlink" width="200" height="200"><defs><style type="text/css">@font-face { font-family: feedback-iconfont; src: url("//at.alicdn.com/t/font_1031158_u69w8yhxdu.woff2?t=1630033759944") format("woff2"), url("//at.alicdn.com/t/font_1031158_u69w8yhxdu.woff?t=1630033759944") format("woff"), url("//at.alicdn.com/t/font_1031158_u69w8yhxdu.ttf?t=1630033759944") format("truetype"); }
</style></defs><path d="M102.4 102.4m307.2 0l204.8 0q307.2 0 307.2 307.2l0 204.8q0 307.2-307.2 307.2l-204.8 0q-307.2 0-307.2-307.2l0-204.8q0-307.2 307.2-307.2Z" fill="#6464FF" p-id="2516"></path><path d="M632.32 332.8c77.76256 0 140.8 63.03744 140.8 140.8v25.6c0 77.76256-63.03744 140.8-140.8 140.8H513.29536L409.6 742.4v-102.4h-12.8C319.03744 640 256 576.96256 256 499.2v-25.6C256 395.83744 319.03744 332.8 396.8 332.8h235.52zM414.72 455.68a30.72 30.72 0 1 0 0 61.44 30.72 30.72 0 0 0 0-61.44z m102.4 0a30.72 30.72 0 1 0 0 61.44 30.72 30.72 0 0 0 0-61.44z m102.4 0a30.72 30.72 0 1 0 0 61.44 30.72 30.72 0 0 0 0-61.44z" fill="#FFFFFF" fill-opacity=".8" p-id="2517"></path></svg>