<?xml version="1.0" standalone="no"?><!DOCTYPE svg PUBLIC "-//W3C//DTD SVG 1.1//EN" "http://www.w3.org/Graphics/SVG/1.1/DTD/svg11.dtd"><svg t="1657168113470" class="icon" viewBox="0 0 1024 1024" version="1.1" xmlns="http://www.w3.org/2000/svg" p-id="2362" xmlns:xlink="http://www.w3.org/1999/xlink" width="200" height="200"><defs><style type="text/css">@font-face { font-family: feedback-iconfont; src: url("//at.alicdn.com/t/font_1031158_u69w8yhxdu.woff2?t=1630033759944") format("woff2"), url("//at.alicdn.com/t/font_1031158_u69w8yhxdu.woff?t=1630033759944") format("woff"), url("//at.alicdn.com/t/font_1031158_u69w8yhxdu.ttf?t=1630033759944") format("truetype"); }
</style></defs><path d="M102.4 102.4m307.2 0l204.8 0q307.2 0 307.2 307.2l0 204.8q0 307.2-307.2 307.2l-204.8 0q-307.2 0-307.2-307.2l0-204.8q0-307.2 307.2-307.2Z" fill="#FF99DD" p-id="2363"></path><path d="M614.4 256c28.27776 0 51.2 22.92224 51.2 51.2v409.6c0 28.27776-22.92224 51.2-51.2 51.2H409.6c-28.27776 0-51.2-22.92224-51.2-51.2V307.2c0-28.27776 22.92224-51.2 51.2-51.2h204.8z m-102.4 399.36a30.72 30.72 0 1 0 0 61.44 30.72 30.72 0 0 0 0-61.44z m23.04-373.76h-46.08a12.8 12.8 0 1 0 0 25.6h46.08a12.8 12.8 0 1 0 0-25.6z" fill="#FFFFFF" fill-opacity=".8" p-id="2364"></path></svg>