<?xml version="1.0" standalone="no"?><!DOCTYPE svg PUBLIC "-//W3C//DTD SVG 1.1//EN" "http://www.w3.org/Graphics/SVG/1.1/DTD/svg11.dtd"><svg t="1657168042201" class="icon" viewBox="0 0 1024 1024" version="1.1" xmlns="http://www.w3.org/2000/svg" p-id="3130" xmlns:xlink="http://www.w3.org/1999/xlink" width="200" height="200"><defs><style type="text/css">@font-face { font-family: feedback-iconfont; src: url("//at.alicdn.com/t/font_1031158_u69w8yhxdu.woff2?t=1630033759944") format("woff2"), url("//at.alicdn.com/t/font_1031158_u69w8yhxdu.woff?t=1630033759944") format("woff"), url("//at.alicdn.com/t/font_1031158_u69w8yhxdu.ttf?t=1630033759944") format("truetype"); }
</style></defs><path d="M102.4 102.4m307.2 0l204.8 0q307.2 0 307.2 307.2l0 204.8q0 307.2-307.2 307.2l-204.8 0q-307.2 0-307.2-307.2l0-204.8q0-307.2 307.2-307.2Z" fill="#50CC79" p-id="3131"></path><path d="M621.6704 276.48c77.14816 42.12224 129.4848 123.99616 129.4848 218.09152 0 137.14432-111.1808 248.32-248.32 248.32-105.3696 0-195.4048-65.62304-231.4752-158.22848a247.1936 247.1936 0 0 0 118.8352 30.22848c137.1392 0 248.32-111.17568 248.32-248.32 0-31.5392-5.888-61.71136-16.60928-89.472z" fill="#FFFFFF" fill-opacity=".8" p-id="3132"></path></svg>