<?xml version="1.0" standalone="no"?><!DOCTYPE svg PUBLIC "-//W3C//DTD SVG 1.1//EN" "http://www.w3.org/Graphics/SVG/1.1/DTD/svg11.dtd"><svg t="1657168140039" class="icon" viewBox="0 0 1024 1024" version="1.1" xmlns="http://www.w3.org/2000/svg" p-id="3274" xmlns:xlink="http://www.w3.org/1999/xlink" width="200" height="200"><defs><style type="text/css">@font-face { font-family: feedback-iconfont; src: url("//at.alicdn.com/t/font_1031158_u69w8yhxdu.woff2?t=1630033759944") format("woff2"), url("//at.alicdn.com/t/font_1031158_u69w8yhxdu.woff?t=1630033759944") format("woff"), url("//at.alicdn.com/t/font_1031158_u69w8yhxdu.ttf?t=1630033759944") format("truetype"); }
</style></defs><path d="M102.4 102.4m307.2 0l204.8 0q307.2 0 307.2 307.2l0 204.8q0 307.2-307.2 307.2l-204.8 0q-307.2 0-307.2-307.2l0-204.8q0-307.2 307.2-307.2Z" fill="#FFD430" p-id="3275"></path><path d="M512 517.12l125.04064 216.576H386.95424L512 517.12z m254.52032-2.56l-125.04064 216.576-125.04576-216.576h250.0864z m-509.03552 0h250.07616l-125.04064 216.576L257.4848 514.56z m509.03552-5.12H516.43392l125.04576-216.58112 125.04064 216.576z m-384-216.576l125.04064 216.576H257.4848l125.03552-216.576z m254.52032-2.56512L512 506.87488l-125.04576-216.576h250.0864z" fill="#FFFFFF" fill-opacity=".6" p-id="3276"></path><path d="M411.09504 514.56h96.46592l-47.9744 83.09248-48.49152-83.0976zM512 517.12l31.8208 55.12704-78.1568 25.12896L512 517.12z m150.20032-2.56L548.52608 570.15296 516.43392 514.56h145.7664z m4.9152-5.12h-150.6816l124.0832-214.91712 26.5984 214.91712zM415.44704 349.89568L507.56096 509.44H409.69216l5.75488-159.54432z m221.13792-58.80832L512 506.87488 416.74752 341.89312l219.83744-50.80576z" fill="#FFFFFF" p-id="3277"></path></svg>