<?xml version="1.0" standalone="no"?><!DOCTYPE svg PUBLIC "-//W3C//DTD SVG 1.1//EN" "http://www.w3.org/Graphics/SVG/1.1/DTD/svg11.dtd"><svg t="1657168144588" class="icon" viewBox="0 0 1024 1024" version="1.1" xmlns="http://www.w3.org/2000/svg" p-id="3426" xmlns:xlink="http://www.w3.org/1999/xlink" width="200" height="200"><defs><style type="text/css">@font-face { font-family: feedback-iconfont; src: url("//at.alicdn.com/t/font_1031158_u69w8yhxdu.woff2?t=1630033759944") format("woff2"), url("//at.alicdn.com/t/font_1031158_u69w8yhxdu.woff?t=1630033759944") format("woff"), url("//at.alicdn.com/t/font_1031158_u69w8yhxdu.ttf?t=1630033759944") format("truetype"); }
</style></defs><path d="M102.4 102.4m307.2 0l204.8 0q307.2 0 307.2 307.2l0 204.8q0 307.2-307.2 307.2l-204.8 0q-307.2 0-307.2-307.2l0-204.8q0-307.2 307.2-307.2Z" fill="#6498FF" p-id="3427"></path><path d="M512 256c141.38368 0 256 114.61632 256 256s-114.61632 256-256 256-256-114.61632-256-256 114.61632-256 256-256zM394.14784 524.8h-0.60416a13.99296 13.99296 0 0 0-1.80224 0.17408 12.42624 12.42624 0 0 0-1.9968 0.49664l-0.32768 0.11264a9.2672 9.2672 0 0 0-0.53248 0.21504l-0.24064 0.1024a9.0624 9.0624 0 0 0-0.50688 0.24064l-0.3072 0.1536c-0.18944 0.1024-0.37376 0.2048-0.54784 0.31232l-0.16384 0.09728c-0.2048 0.12288-0.4096 0.256-0.59904 0.39424l-0.18944 0.13312a12.88704 12.88704 0 0 0-2.02752 1.83296l-27.76064 31.00672-0.58368 0.70144a12.8 12.8 0 0 0 19.6608 16.37376l11.33568-12.66688c17.65888 52.33152 67.1744 89.40032 124.65152 89.40032 66.29376 0 121.99424-49.3056 130.44736-114.47808a12.8 12.8 0 1 0-25.39008-3.29216c-6.79936 52.4544-51.67104 92.17024-105.05728 92.17024-46.66368 0-86.81472-30.34624-100.73088-73.0112l18.9696 4.95616 0.8192 0.18944a12.8 12.8 0 0 0 5.64736-24.96l-39.2192-10.24a12.70272 12.70272 0 0 0-0.89088-0.19456l-0.06144-0.01024-0.128-0.0256c-0.256-0.04608-0.512-0.08192-0.77312-0.1024l-0.11264-0.02048a11.40224 11.40224 0 0 0-0.73216-0.0512l-0.24576-0.00512zM511.98976 373.76c-66.29376 0-121.99424 49.3056-130.44224 114.4832a12.8 12.8 0 0 0 25.38496 3.28704C413.73184 439.08096 458.60352 399.36 511.98976 399.36c46.66368 0 86.81984 30.34624 100.73088 73.0112l-18.9696-4.95616-0.8192-0.18432a12.8 12.8 0 0 0-5.64224 24.95488l39.2192 10.24c0.29184 0.0768 0.5888 0.14336 0.88576 0.19968l0.06656 0.00512 0.12288 0.0256c0.256 0.04608 0.512 0.08192 0.77312 0.10752 0.04096 0 0.0768 0.01024 0.11264 0.01536 0.24064 0.0256 0.4864 0.04096 0.73216 0.0512l0.24576 0.01024h0.60416l0.34816-0.01536 0.50176-0.03584 0.07168-0.01024 0.12288-0.01024 0.2048-0.02048 0.08704-0.01024a12.93824 12.93824 0 0 0 2.46272-0.56832l0.32768-0.11264a9.2672 9.2672 0 0 0 0.53248-0.21504l0.24064-0.1024a9.0624 9.0624 0 0 0 0.512-0.23552l0.3072-0.15872 0.54272-0.3072 0.16896-0.1024c0.2048-0.12288 0.39936-0.256 0.59904-0.39424l0.18432-0.13312c0.73728-0.53248 1.408-1.13664 2.03264-1.82784l27.75552-31.01184 0.58368-0.70144a12.8 12.8 0 0 0-19.6608-16.36864l-11.33568 12.66176C618.9824 410.8288 569.46688 373.76 511.98976 373.76z" fill="#FFFFFF" fill-opacity=".8" p-id="3428"></path></svg>