<?xml version="1.0" standalone="no"?><!DOCTYPE svg PUBLIC "-//W3C//DTD SVG 1.1//EN" "http://www.w3.org/Graphics/SVG/1.1/DTD/svg11.dtd"><svg t="1657168151679" class="icon" viewBox="0 0 1024 1024" version="1.1" xmlns="http://www.w3.org/2000/svg" p-id="3730" xmlns:xlink="http://www.w3.org/1999/xlink" width="200" height="200"><defs><style type="text/css">@font-face { font-family: feedback-iconfont; src: url("//at.alicdn.com/t/font_1031158_u69w8yhxdu.woff2?t=1630033759944") format("woff2"), url("//at.alicdn.com/t/font_1031158_u69w8yhxdu.woff?t=1630033759944") format("woff"), url("//at.alicdn.com/t/font_1031158_u69w8yhxdu.ttf?t=1630033759944") format("truetype"); }
</style></defs><path d="M102.4 102.4m307.2 0l204.8 0q307.2 0 307.2 307.2l0 204.8q0 307.2-307.2 307.2l-204.8 0q-307.2 0-307.2-307.2l0-204.8q0-307.2 307.2-307.2Z" fill="#FFB3B3" p-id="3731"></path><path d="M624.64 660.48a15.36 15.36 0 0 1 0 30.72H399.36a15.36 15.36 0 0 1 0-30.72h225.28z m97.28-322.56a46.08 46.08 0 0 1 46.08 46.08v215.04a46.08 46.08 0 0 1-46.08 46.08H302.08a46.08 46.08 0 0 1-46.08-46.08V384a46.08 46.08 0 0 1 46.08-46.08h419.84zM519.93088 442.37312a15.36 15.36 0 0 0-21.3248-4.1472L396.73344 506.95168a15.36 15.36 0 0 0 17.1776 25.46688l101.87264-68.7104a15.36 15.36 0 0 0 4.1472-21.32992z m106.51136-20.03968a15.36 15.36 0 0 0-21.3248-4.1472l-131.584 88.76032a15.36 15.36 0 0 0 17.1776 25.46688l131.584-88.7552a15.36 15.36 0 0 0 4.1472-21.3248z" fill="#FFFFFF" fill-opacity=".8" p-id="3732"></path></svg>