<?xml version="1.0" standalone="no"?><!DOCTYPE svg PUBLIC "-//W3C//DTD SVG 1.1//EN" "http://www.w3.org/Graphics/SVG/1.1/DTD/svg11.dtd"><svg t="1657168055707" class="icon" viewBox="0 0 1024 1024" version="1.1" xmlns="http://www.w3.org/2000/svg" p-id="3283" xmlns:xlink="http://www.w3.org/1999/xlink" width="200" height="200"><defs><style type="text/css">@font-face { font-family: feedback-iconfont; src: url("//at.alicdn.com/t/font_1031158_u69w8yhxdu.woff2?t=1630033759944") format("woff2"), url("//at.alicdn.com/t/font_1031158_u69w8yhxdu.woff?t=1630033759944") format("woff"), url("//at.alicdn.com/t/font_1031158_u69w8yhxdu.ttf?t=1630033759944") format("truetype"); }
</style></defs><path d="M102.4 102.4m307.2 0l204.8 0q307.2 0 307.2 307.2l0 204.8q0 307.2-307.2 307.2l-204.8 0q-307.2 0-307.2-307.2l0-204.8q0-307.2 307.2-307.2Z" fill="#6464FF" p-id="3284"></path><path d="M545.75104 265.73824l133.99552 55.5008a61.44 61.44 0 0 1 33.24928 33.2544l55.5008 133.9904a61.44 61.44 0 0 1 0 47.0272l-55.5008 133.99552a61.44 61.44 0 0 1-33.24928 33.24928l-133.9904 55.5008a61.44 61.44 0 0 1-47.0272 0l-133.99552-55.5008a61.44 61.44 0 0 1-33.24928-33.24928l-55.5008-133.9904a61.44 61.44 0 0 1 0-47.0272l55.5008-133.99552a61.44 61.44 0 0 1 33.24928-33.24928l133.9904-55.5008a61.44 61.44 0 0 1 47.0272 0zM522.24 409.6c-56.55552 0-102.4 45.84448-102.4 102.4s45.84448 102.4 102.4 102.4 102.4-45.84448 102.4-102.4-45.84448-102.4-102.4-102.4z" fill="#FFFFFF" fill-opacity=".8" p-id="3285"></path></svg>