<?xml version="1.0" standalone="no"?><!DOCTYPE svg PUBLIC "-//W3C//DTD SVG 1.1//EN" "http://www.w3.org/Graphics/SVG/1.1/DTD/svg11.dtd"><svg t="1657168064762" class="icon" viewBox="0 0 1024 1024" version="1.1" xmlns="http://www.w3.org/2000/svg" p-id="3591" xmlns:xlink="http://www.w3.org/1999/xlink" width="200" height="200"><defs><style type="text/css">@font-face { font-family: feedback-iconfont; src: url("//at.alicdn.com/t/font_1031158_u69w8yhxdu.woff2?t=1630033759944") format("woff2"), url("//at.alicdn.com/t/font_1031158_u69w8yhxdu.woff?t=1630033759944") format("woff"), url("//at.alicdn.com/t/font_1031158_u69w8yhxdu.ttf?t=1630033759944") format("truetype"); }
</style></defs><path d="M102.4 102.4m307.2 0l204.8 0q307.2 0 307.2 307.2l0 204.8q0 307.2-307.2 307.2l-204.8 0q-307.2 0-307.2-307.2l0-204.8q0-307.2 307.2-307.2Z" fill="#50CCCC" p-id="3592"></path><path d="M512 256c141.38368 0 256 114.61632 256 256s-114.61632 256-256 256-256-114.61632-256-256 114.61632-256 256-256z m2.56 71.68h-5.12a23.04 23.04 0 0 0-23.04 23.04v158.72c0 7.04 3.15904 13.34784 8.1408 17.56672 0.896 2.4576 2.2272 4.8128 4.00896 6.93248l102.02112 121.58464a23.04 23.04 0 0 0 32.4608 2.8416l3.92192-3.29216a23.04 23.04 0 0 0 2.83648-32.4608L537.76896 501.03296l-0.16384-0.19456L537.6 350.72a23.04 23.04 0 0 0-23.04-23.04z" fill="#FFFFFF" fill-opacity=".8" p-id="3593"></path></svg>