<?xml version="1.0" standalone="no"?><!DOCTYPE svg PUBLIC "-//W3C//DTD SVG 1.1//EN" "http://www.w3.org/Graphics/SVG/1.1/DTD/svg11.dtd"><svg t="1657168158980" class="icon" viewBox="0 0 1024 1024" version="1.1" xmlns="http://www.w3.org/2000/svg" p-id="4034" xmlns:xlink="http://www.w3.org/1999/xlink" width="200" height="200"><defs><style type="text/css">@font-face { font-family: feedback-iconfont; src: url("//at.alicdn.com/t/font_1031158_u69w8yhxdu.woff2?t=1630033759944") format("woff2"), url("//at.alicdn.com/t/font_1031158_u69w8yhxdu.woff?t=1630033759944") format("woff"), url("//at.alicdn.com/t/font_1031158_u69w8yhxdu.ttf?t=1630033759944") format("truetype"); }
</style></defs><path d="M102.4 102.4m307.2 0l204.8 0q307.2 0 307.2 307.2l0 204.8q0 307.2-307.2 307.2l-204.8 0q-307.2 0-307.2-307.2l0-204.8q0-307.2 307.2-307.2Z" fill="#9864FF" p-id="4035"></path><path d="M624.29696 604.29312l-34.7904 34.7904c-43.55584-39.1424-109.8752-39.08608-153.36448 0.16896l-34.7904-34.78528c62.74048-58.40896 160.13824-58.4704 222.94528-0.17408z m57.9584-57.9584l-34.77504 34.77504c-75.6224-71.07584-193.75616-71.0144-269.312 0.17408l-34.7648-34.76992c94.7712-90.368 244.00384-90.42432 338.84672-0.17408z m57.93792-57.93792l-34.7648 34.7648c-107.648-103.04-277.62688-102.98368-385.2032 0.17408l-34.7648-34.7648c126.78144-122.3424 327.87456-122.39872 454.7328-0.17408zM227.52768 430.6432l-4.2496 4.17792c158.49984-158.49472 414.5664-159.9488 574.85312-4.35712l-34.7648 34.75968c-139.65824-135.0144-361.4976-134.9632-501.08416 0.1792l-34.75968-34.75968z" fill="#FFFFFF" fill-opacity=".8" p-id="4036"></path></svg>